<?xml version="1.0" encoding="UTF-8"?>
<svg version="1.1" xmlns="http://www.w3.org/2000/svg" width="1024" height="1024">
<path d="M0 0 C2.30639566 1.06330591 4.6225639 2.10057093 6.94384766 3.13085938 C29.39008939 13.22595003 50.75286268 26.46971587 70.48681641 41.14648438 C71.0343457 41.55366699 71.581875 41.96084961 72.14599609 42.38037109 C79.95788987 48.22422398 87.49285502 54.36628474 94.86987305 60.75048828 C95.96691568 61.6976255 97.07053141 62.63719215 98.17993164 63.56982422 C104.47002802 68.93293287 110.29075341 74.76431907 116.1315918 80.60595703 C117.91191893 82.38410209 119.70010018 84.15407999 121.48876953 85.92382812 C128.29039455 92.69246391 134.52531051 99.61880023 140.48681641 107.14648438 C141.43282112 108.26046275 142.38592248 109.36850777 143.35009766 110.46679688 C150.72954166 118.91726066 157.16021044 127.89057317 163.48681641 137.14648438 C164.14230469 138.09394531 164.14230469 138.09394531 164.81103516 139.06054688 C171.97062575 149.41441635 178.36401112 160.15130588 184.48681641 171.14648438 C184.93669922 171.94763672 185.38658203 172.74878906 185.85009766 173.57421875 C207.28635329 212.02974939 220.62475611 254.68627256 227.29931641 298.08398438 C227.49436768 299.34895752 227.68941895 300.61393066 227.89038086 301.91723633 C230.79072499 321.93050639 231.86891084 341.87261792 231.79931641 362.08398438 C231.79658218 363.74618011 231.79658218 363.74618011 231.79379272 365.44195557 C231.55141667 453.40946295 203.27215554 550.19224301 141.69384766 615.66601562 C140.25444987 617.25294848 140.25444987 617.25294848 139.48681641 620.14648438 C138.08013067 621.31872249 136.66968031 622.4868619 135.23681641 623.62695312 C131.03192934 627.27807158 127.56406499 631.7489727 124.17431641 636.14648438 C123.61744141 636.80648437 123.06056641 637.46648438 122.48681641 638.14648438 C121.82681641 638.14648438 121.16681641 638.14648438 120.48681641 638.14648438 C120.22126953 638.73816406 119.95572266 639.32984375 119.68212891 639.93945312 C116.5802052 645.66686127 110.7026839 649.89507519 105.81884766 654.08789062 C103.54668847 656.09363249 101.35021824 658.16745205 99.15380859 660.25537109 C91.71100968 667.28820452 83.77877149 673.50727193 75.55957031 679.60449219 C73.64347754 681.02993883 71.74128174 682.47182621 69.84228516 683.91992188 C59.16069331 691.99556475 47.88219686 699.12703773 36.48681641 706.14648438 C35.83358398 706.54996094 35.18035156 706.9534375 34.50732422 707.36914062 C-50.64634316 759.43150692 -158.26859992 772.32968654 -254.51318359 749.14648438 C-302.16349583 737.53070894 -348.43417134 717.60868648 -388.51318359 689.14648438 C-389.25375 688.62086914 -389.99431641 688.09525391 -390.75732422 687.55371094 C-401.45893299 679.90908169 -411.71191633 671.91520323 -421.51318359 663.14648438 C-422.43744141 662.32148437 -423.36169922 661.49648438 -424.31396484 660.64648438 C-425.98115472 659.14879635 -427.64419893 657.64647528 -429.30224609 656.13867188 C-431.26067135 654.37401308 -433.25295356 652.66386301 -435.26318359 650.95898438 C-444.30936649 643.07351333 -452.80848042 634.34018637 -460.51318359 625.14648438 C-461.28275391 624.26605469 -462.05232422 623.385625 -462.84521484 622.47851562 C-485.21127012 596.76867006 -503.85656216 567.78924595 -518.58203125 537.078125 C-519.52649544 535.11886945 -520.49318076 533.1717192 -521.46240234 531.22460938 C-541.45010271 490.56490068 -553.03570014 444.25467006 -556.51318359 399.14648438 C-556.64128418 397.48963623 -556.64128418 397.48963623 -556.77197266 395.79931641 C-557.5436665 384.78954099 -557.75591868 373.80651837 -557.76318359 362.77148438 C-557.76385834 361.83850525 -557.76453308 360.90552612 -557.76522827 359.9442749 C-557.67593653 281.39591387 -535.36554698 203.93176184 -490.51318359 139.14648438 C-490.03510254 138.45006836 -489.55702148 137.75365234 -489.06445312 137.03613281 C-473.66101238 114.67538641 -455.76259548 94.37195631 -436.63818359 75.14648438 C-436.04424805 74.54787598 -435.4503125 73.94926758 -434.83837891 73.33251953 C-372.15607655 10.87694782 -284.04687778 -26.06657672 -196.51318359 -32.85351562 C-195.43101562 -32.94036621 -194.34884766 -33.0272168 -193.23388672 -33.11669922 C-127.40970248 -38.00003308 -60.09735502 -27.75271052 0 0 Z " fill="#FDFDFD" transform="translate(675.51318359375,150.853515625)"/>
<path d="M0 0 C2.30639566 1.06330591 4.6225639 2.10057093 6.94384766 3.13085938 C29.39008939 13.22595003 50.75286268 26.46971587 70.48681641 41.14648438 C71.0343457 41.55366699 71.581875 41.96084961 72.14599609 42.38037109 C79.95788987 48.22422398 87.49285502 54.36628474 94.86987305 60.75048828 C95.96691568 61.6976255 97.07053141 62.63719215 98.17993164 63.56982422 C104.47002802 68.93293287 110.29075341 74.76431907 116.1315918 80.60595703 C117.91191893 82.38410209 119.70010018 84.15407999 121.48876953 85.92382812 C128.29039455 92.69246391 134.52531051 99.61880023 140.48681641 107.14648438 C141.43282112 108.26046275 142.38592248 109.36850777 143.35009766 110.46679688 C150.72954166 118.91726066 157.16021044 127.89057317 163.48681641 137.14648438 C164.14230469 138.09394531 164.14230469 138.09394531 164.81103516 139.06054688 C171.97062575 149.41441635 178.36401112 160.15130588 184.48681641 171.14648438 C184.93669922 171.94763672 185.38658203 172.74878906 185.85009766 173.57421875 C207.28635329 212.02974939 220.62475611 254.68627256 227.29931641 298.08398438 C227.49436768 299.34895752 227.68941895 300.61393066 227.89038086 301.91723633 C230.79072499 321.93050639 231.86891084 341.87261792 231.79931641 362.08398438 C231.79658218 363.74618011 231.79658218 363.74618011 231.79379272 365.44195557 C231.55141667 453.40946295 203.27215554 550.19224301 141.69384766 615.66601562 C140.25444987 617.25294848 140.25444987 617.25294848 139.48681641 620.14648438 C138.08013067 621.31872249 136.66968031 622.4868619 135.23681641 623.62695312 C131.03192934 627.27807158 127.56406499 631.7489727 124.17431641 636.14648438 C123.61744141 636.80648437 123.06056641 637.46648438 122.48681641 638.14648438 C121.82681641 638.14648438 121.16681641 638.14648438 120.48681641 638.14648438 C120.22126953 638.73816406 119.95572266 639.32984375 119.68212891 639.93945312 C116.5802052 645.66686127 110.7026839 649.89507519 105.81884766 654.08789062 C103.54668847 656.09363249 101.35021824 658.16745205 99.15380859 660.25537109 C91.71100968 667.28820452 83.77877149 673.50727193 75.55957031 679.60449219 C73.64347754 681.02993883 71.74128174 682.47182621 69.84228516 683.91992188 C59.16069331 691.99556475 47.88219686 699.12703773 36.48681641 706.14648438 C35.83358398 706.54996094 35.18035156 706.9534375 34.50732422 707.36914062 C-50.64634316 759.43150692 -158.26859992 772.32968654 -254.51318359 749.14648438 C-302.16349583 737.53070894 -348.43417134 717.60868648 -388.51318359 689.14648438 C-389.25375 688.62086914 -389.99431641 688.09525391 -390.75732422 687.55371094 C-401.45893299 679.90908169 -411.71191633 671.91520323 -421.51318359 663.14648438 C-422.43744141 662.32148437 -423.36169922 661.49648438 -424.31396484 660.64648438 C-425.98115472 659.14879635 -427.64419893 657.64647528 -429.30224609 656.13867188 C-431.26067135 654.37401308 -433.25295356 652.66386301 -435.26318359 650.95898438 C-444.30936649 643.07351333 -452.80848042 634.34018637 -460.51318359 625.14648438 C-461.28275391 624.26605469 -462.05232422 623.385625 -462.84521484 622.47851562 C-485.21127012 596.76867006 -503.85656216 567.78924595 -518.58203125 537.078125 C-519.52649544 535.11886945 -520.49318076 533.1717192 -521.46240234 531.22460938 C-541.45010271 490.56490068 -553.03570014 444.25467006 -556.51318359 399.14648438 C-556.64128418 397.48963623 -556.64128418 397.48963623 -556.77197266 395.79931641 C-557.5436665 384.78954099 -557.75591868 373.80651837 -557.76318359 362.77148438 C-557.76385834 361.83850525 -557.76453308 360.90552612 -557.76522827 359.9442749 C-557.67593653 281.39591387 -535.36554698 203.93176184 -490.51318359 139.14648438 C-490.03510254 138.45006836 -489.55702148 137.75365234 -489.06445312 137.03613281 C-473.66101238 114.67538641 -455.76259548 94.37195631 -436.63818359 75.14648438 C-436.04424805 74.54787598 -435.4503125 73.94926758 -434.83837891 73.33251953 C-372.15607655 10.87694782 -284.04687778 -26.06657672 -196.51318359 -32.85351562 C-195.43101562 -32.94036621 -194.34884766 -33.0272168 -193.23388672 -33.11669922 C-127.40970248 -38.00003308 -60.09735502 -27.75271052 0 0 Z M-315.51318359 40.14648438 C-316.37975586 40.55592285 -317.24632812 40.96536133 -318.13916016 41.38720703 C-338.21231649 50.91449888 -357.26537573 62.00119165 -374.74169922 75.76025391 C-376.48902203 77.12757735 -378.25433981 78.46698299 -380.02880859 79.79882812 C-385.92358885 84.23576859 -391.58223705 88.83510651 -397.00146484 93.84570312 C-399.07341071 95.7436442 -401.17510183 97.58504905 -403.30224609 99.41992188 C-407.56679644 103.14150295 -411.58619169 107.07127525 -415.57568359 111.08398438 C-416.2440625 111.74849609 -416.91244141 112.41300781 -417.60107422 113.09765625 C-422.11018187 117.61552796 -426.36088969 122.30034779 -430.51318359 127.14648438 C-431.4023986 128.16741171 -432.291713 129.18825248 -433.18115234 130.20898438 C-449.00874571 148.66224052 -462.85439461 168.59888096 -474.36669922 190.02685547 C-475.59823449 192.30372711 -476.86054656 194.56215867 -478.12255859 196.82226562 C-498.28918845 233.5019163 -509.27279414 274.2551269 -515.26318359 315.45898438 C-515.37871582 316.25095215 -515.49424805 317.04291992 -515.61328125 317.85888672 C-517.49034618 331.49965143 -517.71943491 345.09016235 -517.70068359 358.83398438 C-517.69941467 359.78934082 -517.69814575 360.74469727 -517.69683838 361.72900391 C-517.61233486 395.15608246 -514.59888121 429.08663398 -504.51318359 461.14648438 C-504.11481672 462.43323971 -503.71655037 463.72002617 -503.31835938 465.00683594 C-497.06625479 485.09779453 -490.01633236 504.32752489 -480.51318359 523.14648438 C-480.1100293 523.95553223 -479.706875 524.76458008 -479.29150391 525.59814453 C-465.09266082 553.94135944 -446.74524581 580.23318947 -425.09521484 603.37304688 C-421.74532669 606.97126259 -418.51609689 610.67116275 -415.29052734 614.38085938 C-413.69424817 616.38140574 -413.69424817 616.38140574 -411.51318359 616.14648438 C-411.01818359 617.63148438 -411.01818359 617.63148438 -410.51318359 619.14648438 C-408.99248387 620.72665205 -408.99248387 620.72665205 -407.07568359 622.27148438 C-403.94809257 624.91748174 -400.89964827 627.61896819 -397.88818359 630.39648438 C-355.92222193 668.15309426 -302.78063184 695.62514123 -247.90429688 708.56738281 C-245.81369455 709.0737039 -243.73788313 709.6403243 -241.66552734 710.21679688 C-232.37790715 712.78377786 -222.95374761 714.32559397 -213.45068359 715.83398438 C-212.77562775 715.94275909 -212.1005719 716.05153381 -211.40505981 716.16360474 C-194.92323747 718.79744126 -178.60848197 719.35569282 -161.95068359 719.33398438 C-161.01954742 719.33304779 -160.08841125 719.33211121 -159.12905884 719.33114624 C-145.50106708 719.3014518 -132.01935278 719.14057139 -118.51318359 717.14648438 C-117.41329102 716.98519043 -116.31339844 716.82389648 -115.18017578 716.65771484 C-49.01574839 706.64987566 15.065062 679.89333882 65.70800781 635.65429688 C67.99990753 633.71156113 70.35310104 631.84940749 72.69775391 629.97070312 C78.51171346 625.2255874 83.83221245 620.09808777 89.11181641 614.77148438 C89.98837891 613.90265625 90.86494141 613.03382813 91.76806641 612.13867188 C97.76995829 606.11897023 103.18286203 599.78278781 108.48681641 593.14648438 C109.35048207 592.11916749 110.21889537 591.09577987 111.09619141 590.08007812 C165.06672037 527.14728979 191.67904285 444.06471046 191.67211914 361.921875 C191.67429778 359.0460714 191.69251293 356.17065778 191.71142578 353.29492188 C191.76699769 335.36413324 190.44681011 317.62266702 187.29931641 299.95898438 C187.08500977 298.74686279 186.87070312 297.53474121 186.64990234 296.28588867 C178.20379584 250.235494 160.60998455 205.0745781 134.48681641 166.14648438 C134.07834473 165.53240723 133.66987305 164.91833008 133.24902344 164.28564453 C115.2053681 137.25420616 92.70199825 110.16382324 67.03369141 90.13476562 C64.23422145 87.94928984 61.55693269 85.64668551 58.86181641 83.33398438 C32.93372315 61.76607111 2.29303419 44.31483564 -29.07861328 32.09716797 C-30.77863717 31.43331989 -32.4743034 30.7582514 -34.16650391 30.07470703 C-50.92905567 23.30577873 -67.9783741 18.41781705 -85.51318359 14.14648438 C-86.38765137 13.92621582 -87.26211914 13.70594727 -88.16308594 13.47900391 C-162.67929993 -5.02125035 -246.98834375 7.32894589 -315.51318359 40.14648438 Z " fill="#C11618" transform="translate(675.51318359375,150.853515625)"/>
<path d="M0 0 C0.73734375 0.57234375 1.4746875 1.1446875 2.234375 1.734375 C2.84796875 2.18296875 3.4615625 2.6315625 4.09375 3.09375 C15.90953341 12.30789303 23.62306994 27.13245162 26.234375 41.734375 C28.06292861 60.48772796 24.83496004 79.02479607 12.6875 93.9609375 C2.33316916 106.04160824 -10.40994342 113.74728575 -25.765625 117.734375 C-26.6630542 117.99347656 -26.6630542 117.99347656 -27.57861328 118.2578125 C-46.52475833 122.38628706 -65.53480348 117.43192837 -81.765625 107.734375 C-96.32327517 98.01723382 -105.78572705 83.41198076 -109.640625 66.421875 C-113.06038325 46.51765331 -109.32531143 29.57753631 -97.734375 12.79296875 C-88.0852119 0.22458421 -73.93334402 -9.35786968 -58.35546875 -12.796875 C-37.74668466 -15.4879023 -16.97933484 -12.65338966 0 0 Z " fill="#020202" transform="translate(417.765625,443.265625)"/>
<path d="M0 0 C1.70833008 -0.00290039 1.70833008 -0.00290039 3.45117188 -0.00585938 C4.63130859 0.01798828 5.81144531 0.04183594 7.02734375 0.06640625 C8.21134766 0.05544922 9.39535156 0.04449219 10.61523438 0.03320312 C19.28136107 0.10685293 19.28136107 0.10685293 22.16967773 2.31298828 C24.16579637 4.88815235 25.34523643 7.23559733 26.58984375 10.25 C26.95879761 11.1399894 26.95879761 11.1399894 27.33520508 12.04795837 C31.75454746 22.84431827 35.82479124 33.78606621 39.96484375 44.69140625 C40.90084159 47.15103644 41.83704123 49.61058983 42.7734375 52.07006836 C45.08322478 58.13933125 47.38930069 64.20999564 49.69384766 70.28125 C50.87054741 73.38054063 52.04828335 76.47943454 53.2265625 79.578125 C54.85103412 83.85048251 56.47387643 88.12345351 58.09472656 92.39718628 C58.66407759 93.89838234 59.23372715 95.39946522 59.80371094 96.90042114 C61.06853141 100.23292367 62.32841811 103.5670747 63.57421875 106.90673828 C64.53185653 109.46996608 65.5005973 112.02693435 66.48046875 114.58154297 C66.95502013 115.8458062 67.42900238 117.11028324 67.90234375 118.375 C68.32386719 119.48415771 68.74539063 120.59331543 69.1796875 121.73608398 C69.95988898 124.61065095 70.03155791 125.89959219 68.96484375 128.62890625 C64.88981581 128.70310836 60.81504983 128.75753195 56.73950195 128.79370117 C55.35336456 128.80878022 53.96727481 128.82924675 52.58129883 128.85522461 C50.58826229 128.89164341 48.59487652 128.90703643 46.6015625 128.921875 C44.80271606 128.94544067 44.80271606 128.94544067 42.9675293 128.96948242 C39.96484375 128.62890625 39.96484375 128.62890625 38.14819336 127.35913086 C36.86431958 125.48192568 36.11143331 123.81010307 35.39453125 121.65234375 C35.13800781 120.89953125 34.88148438 120.14671875 34.6171875 119.37109375 C34.36066406 118.58992187 34.10414063 117.80875 33.83984375 117.00390625 C32.52424258 111.93198931 32.52424258 111.93198931 29.96484375 107.62890625 C28.49130027 107.53586607 27.01333784 107.5114436 25.53686523 107.51538086 C24.59596542 107.51545639 23.65506561 107.51553192 22.68565369 107.51560974 C21.66274734 107.52077103 20.639841 107.52593231 19.5859375 107.53125 C18.54413834 107.53266495 17.50233917 107.5340799 16.42897034 107.53553772 C13.08673281 107.54115545 9.74456118 107.55371095 6.40234375 107.56640625 C4.14257909 107.57141897 1.88281338 107.57598227 -0.37695312 107.58007812 C-5.92971016 107.59113064 -11.4824285 107.60788601 -17.03515625 107.62890625 C-17.67731405 109.06069348 -18.31807574 110.49310692 -18.95825195 111.92578125 C-19.31522659 112.72338867 -19.67220123 113.52099609 -20.03999329 114.34277344 C-21.22528967 117.06568925 -22.24673631 119.82463018 -23.22265625 122.62890625 C-24.92854644 127.52229644 -24.92854644 127.52229644 -26.03515625 128.62890625 C-28.16868799 128.72893914 -30.30553167 128.75971673 -32.44140625 128.76171875 C-33.74207031 128.76300781 -35.04273438 128.76429688 -36.3828125 128.765625 C-37.06359863 128.76353027 -37.74438477 128.76143555 -38.44580078 128.75927734 C-40.5264414 128.75392865 -42.60686614 128.75922305 -44.6875 128.765625 C-46.63849609 128.76369141 -46.63849609 128.76369141 -48.62890625 128.76171875 C-49.83224609 128.76059082 -51.03558594 128.75946289 -52.27539062 128.75830078 C-55.03515625 128.62890625 -55.03515625 128.62890625 -56.03515625 127.62890625 C-55.62974643 121.31400512 -53.94407802 116.08631468 -51.60546875 110.2421875 C-51.25958206 109.3560376 -50.91369537 108.4698877 -50.55732727 107.55688477 C-49.43319138 104.68174438 -48.29664564 101.81168305 -47.16015625 98.94140625 C-46.37404863 96.93619558 -45.58898164 94.93057665 -44.80493164 92.92456055 C-43.63157063 89.92290226 -42.45758116 86.92150993 -41.28010559 83.92146301 C-38.28275005 76.2838677 -35.35942119 68.62153578 -32.47265625 60.94140625 C-31.17648539 57.52199613 -29.87705074 54.10384266 -28.57666016 50.68603516 C-27.41328984 47.62738945 -26.25562403 44.56661966 -25.09912109 41.50537109 C-23.32367779 36.81033993 -21.53276237 32.12141188 -19.7336731 27.43539429 C-19.02420169 25.58062785 -18.31942099 23.72405961 -17.61959839 21.8656311 C-16.63783773 19.260898 -15.63925732 16.66320041 -14.63671875 14.06640625 C-14.34750046 13.28754562 -14.05828217 12.508685 -13.76029968 11.70622253 C-11.04798357 4.77492912 -8.06344601 -0.00563483 0 0 Z " fill="#020202" transform="translate(656.03515625,430.37109375)"/>
<path d="M0 0 C11.23200748 8.65320008 11.23200748 8.65320008 13.15917969 13.67089844 C9.44627769 17.60220644 5.53343317 20.7188711 1.09667969 23.79589844 C-0.12363051 24.65230159 -1.34368929 25.50906313 -2.56347656 26.36621094 C-3.42030029 26.95837402 -3.42030029 26.95837402 -4.29443359 27.5625 C-5.98901124 28.74377844 -5.98901124 28.74377844 -8.02441406 30.53808594 C-9.84082031 31.67089844 -9.84082031 31.67089844 -11.90332031 31.56152344 C-14.19425953 30.50843041 -15.22967531 29.35091589 -16.84082031 27.42089844 C-23.59041409 20.51466852 -31.90036828 18.17631749 -41.34082031 17.98339844 C-50.97450232 18.09467153 -58.60271472 21.45209767 -65.77832031 27.92089844 C-73.45431201 36.34759837 -75.33355874 45.73281898 -75.11816406 56.77246094 C-74.42123519 66.56872873 -70.1821805 74.79496797 -62.95800781 81.38964844 C-53.5972591 88.87824741 -44.41242841 89.67119462 -32.84082031 88.67089844 C-25.54747139 87.15820385 -20.40946064 84.03026122 -15.00878906 78.96386719 C-12.84082031 77.67089844 -12.84082031 77.67089844 -10.09082031 77.60058594 C-5.56907596 79.08971809 -2.35414105 81.67161811 1.34667969 84.60839844 C2.75652275 85.7012505 4.1666672 86.79371391 5.57714844 87.88574219 C6.19356201 88.37163818 6.80997559 88.85753418 7.44506836 89.3581543 C8.96984524 90.52589754 10.56117325 91.60556081 12.15917969 92.67089844 C11.25838292 98.55257142 6.47922702 101.98615218 2.15917969 105.67089844 C-5.33550328 111.04177326 -12.99724143 115.06984583 -21.84082031 117.67089844 C-22.52917969 117.89519531 -23.21753906 118.11949219 -23.92675781 118.35058594 C-41.71945249 123.32708675 -61.31328948 118.72544703 -76.96582031 109.92089844 C-91.93232378 100.49487943 -102.00305766 86.67880351 -106.65332031 69.67089844 C-110.28822122 52.38446628 -108.42990098 33.93273182 -99.05175781 18.78027344 C-91.84704779 8.50423284 -83.7307303 0.89602609 -72.84082031 -5.32910156 C-72.16277344 -5.73 -71.48472656 -6.13089844 -70.78613281 -6.54394531 C-49.47099065 -18.26285127 -19.20579877 -13.86689238 0 0 Z " fill="#020202" transform="translate(571.8408203125,442.3291015625)"/>
<path d="M0 0 C1.34511724 -0.00789489 1.34511724 -0.00789489 2.71740857 -0.01594928 C3.71080421 -0.01155279 4.70419985 -0.00715631 5.72769839 -0.0026266 C6.78096409 -0.00583308 7.8342298 -0.00903955 8.91941264 -0.0123432 C12.49038606 -0.02072227 16.06119518 -0.01469146 19.63217169 -0.00884742 C22.20151148 -0.0118645 24.77085038 -0.01575173 27.34018767 -0.02043998 C32.9478951 -0.02922869 38.55556602 -0.03050467 44.16327864 -0.02693671 C52.50196866 -0.02164506 60.84062313 -0.02770944 69.17930928 -0.03601964 C84.93613286 -0.05128995 100.69294042 -0.05296161 116.44976985 -0.05049662 C128.61407853 -0.04866656 140.77838193 -0.0504175 152.94268996 -0.05472106 C154.68805652 -0.05532345 156.43342309 -0.05592465 158.17878966 -0.05652466 C160.80863451 -0.05743188 163.43847935 -0.05834054 166.06832419 -0.05925701 C190.53105864 -0.06769115 214.99379111 -0.07201905 239.45652682 -0.06785029 C240.8408982 -0.06761573 240.8408982 -0.06761573 242.25323668 -0.06737643 C246.93132134 -0.0665706 251.609406 -0.06572483 256.28749066 -0.06486312 C257.2166338 -0.06469204 258.14577694 -0.06452095 259.10307593 -0.06434468 C260.98203055 -0.06399802 262.86098518 -0.06364949 264.7399398 -0.06329909 C293.98316822 -0.05794065 323.2263665 -0.06587391 352.46958929 -0.08433264 C385.29703175 -0.10502934 418.12445554 -0.11577984 450.95190489 -0.11175716 C454.44934187 -0.11136179 457.94677885 -0.11100025 461.44421583 -0.11065978 C462.73602705 -0.11052368 462.73602705 -0.11052368 464.05393547 -0.11038483 C477.07837854 -0.10921683 490.10280282 -0.11588257 503.12724119 -0.1264717 C517.93239544 -0.13849604 532.73750814 -0.1401147 547.54266297 -0.12768153 C555.83600136 -0.12102938 564.12924057 -0.12273791 572.42257113 -0.13627005 C578.60142008 -0.14543119 584.78015845 -0.13905466 590.95899922 -0.12642225 C593.46907034 -0.12374922 595.97915287 -0.12622232 598.48921286 -0.13415811 C601.88205469 -0.14414642 605.27436259 -0.13594365 608.66718203 -0.12288111 C609.6582365 -0.13019046 610.64929098 -0.13749981 611.6703774 -0.14503065 C612.56962575 -0.13777632 613.4688741 -0.13052199 614.39537239 -0.12304783 C615.1718644 -0.12306829 615.94835641 -0.12308875 616.74837848 -0.12310984 C619.33280406 0.35853118 620.21627583 1.14732741 621.76036078 3.251849 C622.07286078 6.814349 622.07286078 6.814349 621.76036078 10.251849 C619.76036078 12.251849 619.76036078 12.251849 617.86731562 12.50166399 C617.0879482 12.50157577 616.30858078 12.50148755 615.50559616 12.50139666 C614.60547205 12.50614747 613.70534794 12.51089828 612.77794734 12.51579306 C611.2821833 12.50834079 611.2821833 12.50834079 609.7562018 12.50073797 C608.69896016 12.50334525 607.64171851 12.50595254 606.55243924 12.50863883 C602.96795531 12.5149941 599.3836429 12.50694165 595.79916388 12.49908715 C593.22014957 12.50067363 590.64113567 12.50313562 588.06212294 12.50640357 C582.43332656 12.51210426 576.80457042 12.51032133 571.17577559 12.5037182 C562.80584324 12.49392637 554.43594053 12.49552626 546.06600478 12.49946849 C531.9880017 12.50575367 517.91001534 12.50256064 503.83201414 12.49387437 C489.8866047 12.48527159 475.94120276 12.48035394 461.99579054 12.480542 C461.12960641 12.48054965 460.26342227 12.4805573 459.37099014 12.48056517 C455.85522194 12.48060608 452.33945375 12.48067169 448.82368555 12.48077098 C415.81797661 12.48167781 382.81227912 12.47172075 349.80657416 12.45634132 C320.45596295 12.44271546 291.10535989 12.43648005 261.75474554 12.43715173 C259.87011788 12.43719214 257.98549022 12.4372325 256.10086256 12.43727281 C255.16915697 12.43729316 254.23745139 12.43731351 253.2775123 12.43733448 C248.58784502 12.43743527 243.89817774 12.43752585 239.20851046 12.43760473 C238.28339586 12.43762144 237.35828125 12.43763815 236.40513287 12.43765537 C211.90965648 12.43802021 187.41418112 12.43348554 162.91870558 12.42727816 C162.04782024 12.42705789 161.1769349 12.42683762 160.2796591 12.42661067 C156.77730748 12.4257224 153.27495587 12.42483401 149.77260426 12.42391971 C137.56675709 12.42075503 125.36091072 12.41924984 113.15506317 12.41880822 C97.42961099 12.41821218 81.70416554 12.41423876 65.97871625 12.40437677 C57.6538852 12.39924664 49.32906405 12.39685741 41.0042315 12.39837295 C34.80550176 12.39918939 28.6067863 12.39481509 22.40806014 12.38832245 C19.88725808 12.38649757 17.36645413 12.38638991 14.84565198 12.38808974 C11.44330508 12.39013148 8.04102008 12.38613272 4.63867861 12.38048345 C3.63916142 12.38253877 2.63964423 12.38459409 1.60983863 12.38671169 C0.26340774 12.38257207 0.26340774 12.38257207 -1.11022377 12.37834883 C-1.88952343 12.37805733 -2.66882309 12.37776583 -3.4717379 12.3774655 C-5.23963922 12.251849 -5.23963922 12.251849 -6.23963922 11.251849 C-6.40760797 9.25575525 -6.40760797 9.25575525 -6.42713922 6.814349 C-6.44131891 6.01126306 -6.4554986 5.20817712 -6.47010797 4.38075525 C-6.01518164 0.17846967 -3.65054733 0.00168914 0 0 Z " fill="#0A0909" transform="translate(205.23963922262192,386.7481510043144)"/>
<path d="M0 0 C1.1653125 -0.00128906 2.330625 -0.00257813 3.53125 -0.00390625 C4.7584375 -0.00003906 5.985625 0.00382813 7.25 0.0078125 C9.09078125 0.00201172 9.09078125 0.00201172 10.96875 -0.00390625 C12.71671875 -0.00197266 12.71671875 -0.00197266 14.5 0 C15.57765625 0.00112793 16.6553125 0.00225586 17.765625 0.00341797 C20.25 0.1328125 20.25 0.1328125 21.25 1.1328125 C21.41029688 4.08810754 21.50957328 7.02263707 21.56640625 9.98046875 C21.58718735 10.8668956 21.60796844 11.75332245 21.62937927 12.66661072 C21.694974 15.5094295 21.75380552 18.35234367 21.8125 21.1953125 C21.8556758 23.11784856 21.89928978 25.04037484 21.94335938 26.96289062 C22.05149336 31.68610143 22.15049247 36.40938042 22.25 41.1328125 C35.12 41.1328125 47.99 41.1328125 61.25 41.1328125 C61.25 27.9328125 61.25 14.7328125 61.25 1.1328125 C65.36862291 -0.92649895 70.72359045 -0.05208012 75.25 -0.0546875 C76.36890625 -0.06693359 77.4878125 -0.07917969 78.640625 -0.09179688 C80.24164062 -0.09469727 80.24164062 -0.09469727 81.875 -0.09765625 C82.85726562 -0.10176514 83.83953125 -0.10587402 84.8515625 -0.11010742 C87.25 0.1328125 87.25 0.1328125 89.25 2.1328125 C89.49888897 4.06279087 89.49888897 4.06279087 89.49723816 6.46669006 C89.50143265 7.37672287 89.50562714 8.28675568 89.50994873 9.22436523 C89.50432922 10.2254834 89.49870972 11.22660156 89.49291992 12.25805664 C89.49481827 13.31012802 89.49671661 14.3621994 89.49867249 15.44615173 C89.50238864 18.9368323 89.49166474 22.42730656 89.48046875 25.91796875 C89.4792774 28.33410111 89.47882369 30.75023394 89.4790802 33.16636658 C89.47751392 38.23471976 89.4692127 43.30300244 89.45581055 48.37133789 C89.43881146 54.8842283 89.43499637 61.39704121 89.43575573 67.90995121 C89.43548446 72.90002692 89.43001043 77.89008552 89.42275429 82.88015556 C89.41956115 85.28245349 89.41759872 87.68475336 89.41686058 90.0870533 C89.41470434 93.43705713 89.40597594 96.78697696 89.39526367 100.13696289 C89.39571686 101.14010529 89.39617004 102.14324768 89.39663696 103.17678833 C89.39237198 104.08400131 89.38810699 104.99121429 89.38371277 105.92591858 C89.38203692 106.71882829 89.38036108 107.511738 89.37863445 108.32867527 C89.25 110.1328125 89.25 110.1328125 88.25 111.1328125 C86.33541718 111.23253036 84.41717683 111.26361839 82.5 111.265625 C81.3346875 111.26691406 80.169375 111.26820313 78.96875 111.26953125 C77.7415625 111.26566406 76.514375 111.26179688 75.25 111.2578125 C73.40921875 111.26361328 73.40921875 111.26361328 71.53125 111.26953125 C70.3659375 111.26824219 69.200625 111.26695312 68 111.265625 C66.92234375 111.26449707 65.8446875 111.26336914 64.734375 111.26220703 C62.25 111.1328125 62.25 111.1328125 61.25 110.1328125 C61.10205581 107.18918073 61.01489284 104.26606024 60.96875 101.3203125 C60.95034058 100.43625732 60.93193115 99.55220215 60.91296387 98.64135742 C60.83400101 94.8420871 60.76644992 91.04263163 60.69775391 87.24316406 C60.64614509 84.47712096 60.58884716 81.71123631 60.53125 78.9453125 C60.51767456 78.07865967 60.50409912 77.21200684 60.4901123 76.3190918 C60.79002127 72.41014835 60.79002127 72.41014835 59.25 69.1328125 C56.51105915 69.04422604 53.7974673 69.01757771 51.05859375 69.03515625 C49.82883568 69.03727867 49.82883568 69.03727867 48.57423401 69.03944397 C45.94528618 69.04505961 43.31642227 69.05761471 40.6875 69.0703125 C38.90950643 69.07532549 37.13151154 69.07988874 35.35351562 69.08398438 C30.98564455 69.09503411 26.61783652 69.11230919 22.25 69.1328125 C22.22494385 70.3695874 22.1998877 71.6063623 22.17407227 72.88061523 C22.08017747 77.45217963 21.97991371 82.02358568 21.87768555 86.5949707 C21.83426856 88.57670396 21.79259863 90.55847628 21.75268555 92.5402832 C21.69514617 95.3824442 21.63140555 98.22440733 21.56640625 101.06640625 C21.54969376 101.95806992 21.53298126 102.84973358 21.51576233 103.76841736 C21.36387171 110.01894079 21.36387171 110.01894079 20.25 111.1328125 C18.33541718 111.23253036 16.41717683 111.26361839 14.5 111.265625 C13.3346875 111.26691406 12.169375 111.26820313 10.96875 111.26953125 C9.7415625 111.26566406 8.514375 111.26179688 7.25 111.2578125 C5.40921875 111.26361328 5.40921875 111.26361328 3.53125 111.26953125 C2.3659375 111.26824219 1.200625 111.26695312 0 111.265625 C-1.07765625 111.26449707 -2.1553125 111.26336914 -3.265625 111.26220703 C-5.75 111.1328125 -5.75 111.1328125 -6.75 110.1328125 C-6.84766396 108.71835258 -6.87631677 107.29905304 -6.87698364 105.88122559 C-6.87980347 104.96415329 -6.88262329 104.04708099 -6.88552856 103.10221863 C-6.88350433 102.08815445 -6.8814801 101.07409027 -6.87939453 100.02929688 C-6.88114685 98.96761795 -6.88289917 97.90593903 -6.88470459 96.81208801 C-6.88912548 93.28356315 -6.88618428 89.75508793 -6.8828125 86.2265625 C-6.88348547 83.78658031 -6.88445544 81.34659818 -6.88571167 78.90661621 C-6.88718897 73.78523116 -6.88503307 68.66386351 -6.88037109 63.54248047 C-6.8746738 56.96118535 -6.87795263 50.37993101 -6.88394356 43.79863739 C-6.88754832 38.75795176 -6.88641098 33.71727588 -6.88381577 28.67658997 C-6.88314626 26.24917089 -6.88397573 23.82175094 -6.88629532 21.39433289 C-6.88882045 18.00830727 -6.88498322 14.62234871 -6.87939453 11.23632812 C-6.88141876 10.22226395 -6.88344299 9.20819977 -6.88552856 8.16340637 C-6.88270874 7.24633408 -6.87988892 6.32926178 -6.87698364 5.38439941 C-6.87660662 4.58281654 -6.87622959 3.78123367 -6.87584114 2.95536041 C-6.59639305 -1.0918656 -3.3384713 0.00349421 0 0 Z " fill="#010101" transform="translate(471.75,235.8671875)"/>
<path d="M0 0 C0.89986789 -0.00500704 1.79973577 -0.01001407 2.72687238 -0.01517284 C3.72376256 -0.01049051 4.72065274 -0.00580817 5.74775171 -0.00098395 C6.80469376 -0.00389084 7.86163581 -0.00679772 8.95060641 -0.00979269 C12.5340784 -0.01715989 16.11738274 -0.01011821 19.70085382 -0.00326896 C22.27915568 -0.00557074 24.85745687 -0.00874534 27.43575668 -0.01272345 C33.06302096 -0.01996816 38.69024691 -0.01971466 44.31751299 -0.01462913 C52.68522541 -0.00708739 61.0529053 -0.0109195 69.42061748 -0.01704574 C84.36232194 -0.02759711 99.30400935 -0.02665654 114.24571545 -0.02088792 C127.32115139 -0.01586436 140.39658106 -0.01453987 153.47201777 -0.0169332 C154.33805677 -0.01708597 155.20409578 -0.01723874 156.0963784 -0.01739614 C159.61157536 -0.01801878 163.12677232 -0.01865558 166.64196927 -0.01931567 C199.64293197 -0.02543893 232.64388377 -0.01987842 265.64484479 -0.00912188 C294.98875631 0.00036991 324.33265047 -0.00047932 353.67656183 -0.01004386 C386.61569485 -0.02074426 419.55481824 -0.02500474 452.49395275 -0.01881933 C456.00288661 -0.01817786 459.51182047 -0.01755218 463.02075434 -0.0169332 C463.88479554 -0.01677505 464.74883674 -0.01661689 465.63906102 -0.01645395 C478.70891154 -0.01417534 491.77875512 -0.01684636 504.84860468 -0.02189231 C519.70392028 -0.02759885 534.55921609 -0.02620682 549.4145292 -0.01533082 C557.73694003 -0.00943938 566.05930803 -0.00910195 574.38171778 -0.01662317 C580.58042689 -0.02160913 586.77908497 -0.0162381 592.97778779 -0.00667402 C595.49726172 -0.00442476 598.01674134 -0.00561002 600.53621167 -0.0104256 C603.93923209 -0.01643509 607.34201288 -0.01034316 610.74502039 -0.00098395 C612.24035566 -0.00800745 612.24035566 -0.00800745 613.76589972 -0.01517284 C614.6657676 -0.0101658 615.56563549 -0.00515877 616.4927721 0 C617.66148762 0.00020328 617.66148762 0.00020328 618.85381356 0.00041066 C620.74638605 0.25069833 620.74638605 0.25069833 622.74638605 2.25069833 C623.07390839 4.96524788 622.87722855 7.50300592 622.74638605 10.25069833 C621.20044911 11.79663527 619.76421184 11.3769272 617.61055857 11.37834883 C616.71150456 11.3813648 615.81245055 11.38438076 614.88615248 11.38748813 C613.88503094 11.38571866 612.8839094 11.38394918 611.85245085 11.38212609 C610.79497427 11.38417873 609.73749769 11.38623136 608.64797637 11.3883462 C605.05670922 11.3940612 601.46547987 11.39255345 597.87420893 11.39114022 C595.29264578 11.39372128 592.71108302 11.3967337 590.12952083 11.40014362 C583.74797112 11.40774411 577.36642976 11.40991772 570.98487599 11.41047268 C563.34602125 11.41138429 555.70717431 11.41804575 548.06832291 11.4248195 C529.60327646 11.44090205 511.1382308 11.4467851 492.6731786 11.45156825 C483.94416932 11.4539017 475.2151607 11.45750404 466.48615193 11.46126363 C436.62646371 11.47410042 406.76677586 11.48482007 376.90708494 11.48826623 C375.03164413 11.48848786 373.15620333 11.48870965 371.28076252 11.48893158 C369.40070351 11.48915222 367.52064449 11.48937271 365.64058548 11.48959303 C361.86864205 11.49003559 358.09669862 11.4904827 354.32475519 11.4909327 C352.92191451 11.49109679 352.92191451 11.49109679 351.49073361 11.49126419 C321.14925251 11.4948968 290.80779527 11.51082389 260.46632331 11.53412307 C228.41372177 11.55869138 196.36113388 11.57243765 164.30852264 11.57363415 C160.79339452 11.57380561 157.27826641 11.57402104 153.76313829 11.57426858 C152.46478201 11.57435223 152.46478201 11.57435223 151.14019631 11.57443758 C137.18105058 11.57559057 123.22192924 11.58663355 109.26279176 11.60115563 C95.24571457 11.61548642 81.22866881 11.61877703 67.2115863 11.61071566 C58.87360463 11.60624335 50.53572409 11.61018355 42.1977556 11.62595416 C35.98741424 11.63678513 29.77717854 11.63211374 23.56683939 11.62118229 C21.04262291 11.61920635 18.51839651 11.62238983 15.99419404 11.63102666 C12.58466898 11.64196159 9.17567148 11.63474509 5.7661624 11.62263513 C4.76738202 11.63023032 3.76860165 11.63782551 2.73955521 11.64565086 C1.83799768 11.63865276 0.93644015 11.63165465 0.0075627 11.62444448 C-0.77305257 11.62468869 -1.55366783 11.62493289 -2.35793811 11.62518449 C-2.98351113 11.50160406 -3.60908416 11.37802362 -4.25361395 11.25069833 C-6.55525277 7.79824009 -6.59851717 6.3033112 -6.25361395 2.25069833 C-3.83906823 -0.16384739 -3.29751583 0.00057354 0 0 Z " fill="#050505" transform="translate(203.25361394882202,593.7493016719818)"/>
<path d="M0 0 C0.72845123 -0.0049649 1.45690247 -0.00992981 2.20742798 -0.01504517 C4.62730845 -0.0297008 7.04712339 -0.03647405 9.46704102 -0.04199219 C11.1423391 -0.04774041 12.81763716 -0.05349818 14.49293518 -0.05926514 C18.00945341 -0.06978452 21.52594871 -0.07562118 25.04248047 -0.07910156 C29.55666529 -0.08459129 34.07054922 -0.1086254 38.58463955 -0.13707352 C42.04609574 -0.15566199 45.50747889 -0.16090344 48.96898079 -0.16243744 C50.63362335 -0.16547261 52.29826436 -0.17353004 53.9628582 -0.18662262 C56.2879743 -0.20360622 58.6123477 -0.2018223 60.9375 -0.1953125 C61.63004379 -0.20452728 62.32258759 -0.21374207 63.03611755 -0.22323608 C64.95237732 -0.20635986 64.95237732 -0.20635986 68.03344727 0.16113281 C70.81440631 4.33257138 70.36415073 7.76075949 70.34594727 12.66113281 C70.36206055 13.52867187 70.37817383 14.39621094 70.39477539 15.29003906 C70.39541992 16.1240625 70.39606445 16.95808594 70.39672852 17.81738281 C70.39970947 18.57857422 70.40269043 19.33976562 70.40576172 20.12402344 C69.92379981 22.76106618 69.12128605 23.5079075 67.03344727 25.16113281 C64.88838196 25.55986023 64.88838196 25.55986023 62.37841797 25.59350586 C60.96729485 25.6231971 60.96729485 25.6231971 59.52766418 25.65348816 C58.00878853 25.66307304 58.00878853 25.66307304 56.45922852 25.67285156 C54.90077461 25.69977837 54.90077461 25.69977837 53.31083679 25.72724915 C49.98924836 25.78147324 46.66780461 25.81528709 43.34594727 25.84863281 C41.09527604 25.88179515 38.84462393 25.91628378 36.59399414 25.95214844 C31.07391605 26.03720689 25.55388178 26.10396061 20.03344727 26.16113281 C20.03344727 31.44113281 20.03344727 36.72113281 20.03344727 42.16113281 C21.16886963 42.18095215 22.30429199 42.20077148 23.47412109 42.22119141 C27.68430871 42.29722966 31.8941499 42.38594967 36.10400391 42.47851562 C37.92652551 42.51681276 39.74912289 42.55166436 41.57177734 42.58300781 C44.19078668 42.62864261 46.80927401 42.68663903 49.42797852 42.74707031 C50.24369827 42.75862152 51.05941803 42.77017273 51.89985657 42.78207397 C55.76709231 42.88310555 57.74504511 42.96886471 61.03344727 45.16113281 C61.40576172 47.28417969 61.40576172 47.28417969 61.39672852 49.87988281 C61.39576172 51.27787109 61.39576172 51.27787109 61.39477539 52.70410156 C61.37866211 53.67992187 61.36254883 54.65574219 61.34594727 55.66113281 C61.34916992 56.63695312 61.35239258 57.61277344 61.35571289 58.61816406 C61.30036255 65.89421753 61.30036255 65.89421753 59.03344727 68.16113281 C56.09684517 68.40707371 53.24782614 68.53488534 50.30688477 68.57519531 C49.44406891 68.59456146 48.58125305 68.61392761 47.69229126 68.63388062 C44.9311111 68.69375486 42.16988943 68.74009279 39.40844727 68.78613281 C37.53863722 68.82430541 35.66884489 68.86335671 33.79907227 68.90332031 C29.21062177 69.00112032 24.6223645 69.08062549 20.03344727 69.16113281 C20.03344727 74.77113281 20.03344727 80.38113281 20.03344727 86.16113281 C44.28844727 86.65613281 44.28844727 86.65613281 69.03344727 87.16113281 C69.03344727 94.75113281 69.03344727 102.34113281 69.03344727 110.16113281 C67.1231691 112.07141098 63.68649728 111.28898786 61.15869141 111.29052734 C60.43999374 111.29227966 59.72129608 111.29403198 58.9808197 111.2958374 C56.59339009 111.30025627 54.20603394 111.29731751 51.81860352 111.29394531 C50.16572556 111.29461842 48.51284771 111.2955885 46.85997009 111.29684448 C43.39052389 111.29832156 39.92110338 111.29616685 36.45166016 111.29150391 C31.99812044 111.28581105 27.54464104 111.28908274 23.09110355 111.29507637 C19.67597497 111.2986855 16.26086074 111.29754169 12.84573174 111.29494858 C11.20343455 111.29428006 9.56113608 111.29510514 7.91884041 111.29742813 C5.62505759 111.29995992 3.33137313 111.29610639 1.03759766 111.29052734 C-0.26954697 111.28973175 -1.57669159 111.28893616 -2.92344666 111.28811646 C-5.96655273 111.16113281 -5.96655273 111.16113281 -7.96655273 110.16113281 C-7.98988303 95.9665724 -8.00746614 81.77201494 -8.01836491 67.57743931 C-8.02359446 60.98708496 -8.0306934 54.39674344 -8.04199219 47.80639648 C-8.05281851 41.45221263 -8.05882903 35.09804116 -8.06142998 28.7438488 C-8.06328469 26.3136367 -8.06690617 23.88342532 -8.07228279 21.45321846 C-8.07948984 18.062303 -8.08054382 14.6714394 -8.08007812 11.28051758 C-8.0836734 10.26488235 -8.08726868 9.24924713 -8.0909729 8.20283508 C-8.08959824 7.28431763 -8.08822357 6.36580017 -8.08680725 5.41944885 C-8.08772904 4.61656716 -8.08865084 3.81368547 -8.08960056 2.98647404 C-7.79746434 -1.34719274 -3.36177798 0.00541055 0 0 Z " fill="#030303" transform="translate(606.966552734375,235.8388671875)"/>
<path d="M0 0 C1.25554687 -0.00128906 2.51109375 -0.00257813 3.8046875 -0.00390625 C4.46178711 -0.00181152 5.11888672 0.0002832 5.79589844 0.00244141 C7.80411335 0.00779016 9.81210459 0.00249559 11.8203125 -0.00390625 C13.07585937 -0.00261719 14.33140625 -0.00132812 15.625 0 C16.78644531 0.00112793 17.94789063 0.00225586 19.14453125 0.00341797 C21.8125 0.1328125 21.8125 0.1328125 22.8125 1.1328125 C22.93784988 4.14557361 22.99862016 7.13650833 23.01782227 10.15063477 C23.02772186 11.09687714 23.03762146 12.04311951 23.04782104 13.01803589 C23.07953803 16.16173761 23.10423361 19.30545448 23.12890625 22.44921875 C23.14946698 24.62255762 23.17046321 26.79589241 23.19187927 28.96922302 C23.24719095 34.70177924 23.29655997 40.43437208 23.34472656 46.16699219 C23.39487535 52.01175208 23.4505959 57.8564585 23.50585938 63.70117188 C23.61355213 75.17833978 23.71497225 86.65555403 23.8125 98.1328125 C24.43446259 98.14089935 25.05642517 98.14898621 25.69723511 98.15731812 C32.15335016 98.24317757 38.60915154 98.34267226 45.06494141 98.45019531 C47.47634628 98.48854897 49.88780962 98.5233904 52.29931641 98.5546875 C55.75965313 98.60019953 59.21958508 98.65821654 62.6796875 98.71875 C64.30473709 98.73607681 64.30473709 98.73607681 65.96261597 98.75375366 C66.9635025 98.77362335 67.96438904 98.79349304 68.99560547 98.81396484 C69.87940887 98.82728851 70.76321228 98.84061218 71.67379761 98.8543396 C73.8125 99.1328125 73.8125 99.1328125 75.8125 101.1328125 C76.05541992 103.63891602 76.05541992 103.63891602 76.04296875 106.76171875 C76.04103516 107.87869141 76.03910156 108.99566406 76.03710938 110.14648438 C76.02486328 111.31759766 76.01261719 112.48871094 76 113.6953125 C75.9990332 115.4577832 75.9990332 115.4577832 75.99804688 117.25585938 C75.95262141 125.99269109 75.95262141 125.99269109 74.8125 127.1328125 C72.28708998 127.22785501 69.78912874 127.25838408 67.26342773 127.24633789 C66.07814987 127.24655693 66.07814987 127.24655693 64.868927 127.2467804 C62.24462178 127.24608107 59.62038664 127.23828777 56.99609375 127.23046875 C55.18148335 127.22860464 53.36687244 127.2271807 51.55226135 127.22618103 C46.7665977 127.22235529 41.9809642 127.21252454 37.1953125 127.20147705 C32.31575936 127.19126413 27.43620136 127.18668367 22.55664062 127.18164062 C12.97524714 127.17090232 3.39387607 127.15382523 -6.1875 127.1328125 C-7.4327918 124.64222891 -7.31333052 122.97862648 -7.31448364 120.19151306 C-7.31730347 119.14685379 -7.32012329 118.10219452 -7.32302856 117.02587891 C-7.32100433 115.87514893 -7.3189801 114.72441895 -7.31689453 113.53881836 C-7.31864685 112.33068985 -7.32039917 111.12256134 -7.32220459 109.87782288 C-7.3258588 106.55977631 -7.32499233 103.24179186 -7.3218255 99.92374873 C-7.31929892 96.45686047 -7.32164022 92.98997491 -7.32321167 89.52308655 C-7.32503225 83.7015027 -7.32262973 77.87993153 -7.31787109 72.05834961 C-7.31242613 65.31912373 -7.31419327 58.5799281 -7.3196975 51.84070295 C-7.32422877 46.06234825 -7.32487919 40.28400267 -7.32225883 34.50564677 C-7.32069646 31.05099495 -7.32050126 27.59635738 -7.32379532 24.14170647 C-7.32720813 20.29359629 -7.32248409 16.44552027 -7.31689453 12.59741211 C-7.31993088 10.86828079 -7.31993088 10.86828079 -7.32302856 9.10421753 C-7.32020874 8.06237808 -7.31738892 7.02053864 -7.31448364 5.9471283 C-7.3139181 4.58077948 -7.3139181 4.58077948 -7.31334114 3.18682766 C-7.04391238 -1.21086582 -3.67499099 0.00356894 0 0 Z " fill="#020202" transform="translate(215.1875,431.8671875)"/>
<path d="M0 0 C1.06089844 0.00193359 2.12179687 0.00386719 3.21484375 0.00585938 C4.86806641 0.02422852 4.86806641 0.02422852 6.5546875 0.04296875 C8.21951172 0.04393555 8.21951172 0.04393555 9.91796875 0.04492188 C18.14882235 0.09003618 18.14882235 0.09003618 20.4296875 1.23046875 C20.43999496 2.44347153 20.45030243 3.6564743 20.46092224 4.90623474 C20.55847588 16.31098793 20.66119235 27.71568436 20.76902676 39.12034512 C20.82430416 44.98426323 20.87773172 50.84818629 20.92700195 56.7121582 C20.97457462 62.3661302 21.02691457 68.02003941 21.08262825 73.67393684 C21.10308408 75.83618682 21.12179169 77.99845403 21.13876152 80.16073418 C21.16273434 83.178102 21.19279825 86.19534994 21.22436523 89.21264648 C21.23299843 90.56778603 21.23299843 90.56778603 21.24180603 91.95030212 C20.89659885 95.90770998 20.89659885 95.90770998 22.4296875 99.23046875 C23.89707842 99.34759952 25.36990632 99.39769738 26.84179688 99.41992188 C27.77946899 99.4366394 28.71714111 99.45335693 29.68322754 99.47058105 C31.21288147 99.49094421 31.21288147 99.49094421 32.7734375 99.51171875 C33.81286499 99.53012817 34.85229248 99.5485376 35.92321777 99.56750488 C39.25864822 99.62646483 42.59413052 99.67919672 45.9296875 99.73046875 C50.31521898 99.79788031 54.70057706 99.87154911 59.0859375 99.94921875 C60.10570679 99.96279419 61.12547607 99.97636963 62.17614746 99.99035645 C63.11381958 100.00707397 64.0514917 100.0237915 65.01757812 100.04101562 C65.84729126 100.0535437 66.67700439 100.06607178 67.53186035 100.07897949 C69.4296875 100.23046875 69.4296875 100.23046875 70.4296875 101.23046875 C70.52940536 103.14505157 70.56049339 105.06329192 70.5625 106.98046875 C70.56378906 108.14578125 70.56507813 109.31109375 70.56640625 110.51171875 C70.56253906 111.73890625 70.55867187 112.96609375 70.5546875 114.23046875 C70.55855469 115.45765625 70.56242188 116.68484375 70.56640625 117.94921875 C70.56511719 119.11453125 70.56382812 120.27984375 70.5625 121.48046875 C70.56137207 122.558125 70.56024414 123.63578125 70.55908203 124.74609375 C70.4296875 127.23046875 70.4296875 127.23046875 69.4296875 128.23046875 C67.00111715 128.33076732 64.60097137 128.366653 62.171875 128.35986328 C61.41255676 128.3616156 60.65323853 128.36336792 59.87091064 128.36517334 C57.34881334 128.36959205 54.82678557 128.36665381 52.3046875 128.36328125 C50.55973294 128.36395428 48.81477846 128.3649243 47.06982422 128.36618042 C43.40786855 128.36765742 39.74593722 128.36550278 36.08398438 128.36083984 C31.37924258 128.35514255 26.67455782 128.35842155 21.96981812 128.36441231 C18.36514859 128.36801787 14.76049268 128.36687936 11.15582275 128.36428452 C9.42059319 128.36361523 7.68536241 128.36444371 5.95013428 128.36676407 C3.52922263 128.36929052 1.10840464 128.36545013 -1.3125 128.35986328 C-2.03669128 128.36188751 -2.76088257 128.36391174 -3.50701904 128.36599731 C-8.45604984 128.34473141 -8.45604984 128.34473141 -9.5703125 127.23046875 C-9.66634272 125.61090535 -9.69219105 123.98713792 -9.69056702 122.36473083 C-9.69194168 121.31158691 -9.69331635 120.25844299 -9.69473267 119.17338562 C-9.69113739 118.00813858 -9.68754211 116.84289154 -9.68383789 115.64233398 C-9.68398392 114.42299164 -9.68412994 113.20364929 -9.6842804 111.94735718 C-9.68370143 108.59419364 -9.67867218 105.24109101 -9.67170644 101.88793826 C-9.66547233 98.38721313 -9.66486906 94.88648727 -9.66368103 91.38575745 C-9.66056788 84.75237219 -9.65235472 78.11900334 -9.64233154 71.48562533 C-9.63116989 63.93556668 -9.62565982 56.38550726 -9.62063611 48.83544242 C-9.61017209 33.30044169 -9.59257297 17.76545733 -9.5703125 2.23046875 C-6.16807649 0.40544079 -3.88637275 -0.01643218 0 0 Z " fill="#010101" transform="translate(760.5703125,430.76953125)"/>
<path d="M0 0 C8.69875609 6.41569386 14.47626645 13.75407348 17.2265625 24.296875 C18.25907736 37.20331076 16.36324754 47.2101983 7.83203125 57.3828125 C0.46394374 65.45619555 -9.45953818 69.67415252 -20.26171875 70.67578125 C-32.25385499 71.15795534 -42.50292261 67.31677972 -51.5234375 59.421875 C-59.31679145 51.50885343 -62.69572301 42.84747883 -62.9609375 31.796875 C-62.62107355 20.96508187 -59.42690005 12.05851438 -51.44921875 4.44140625 C-37.07886485 -7.32071588 -16.16443191 -10.10902553 0 0 Z " fill="#030303" transform="translate(568.5234375,755.578125)"/>
<path d="M0 0 C1.19310287 0.00842926 1.19310287 0.00842926 2.41030884 0.01702881 C3.66654808 0.01418129 3.66654808 0.01418129 4.94816589 0.01127625 C7.72462232 0.00756254 10.5008189 0.01828027 13.2772522 0.02947998 C15.20013905 0.03067146 17.12302649 0.03112501 19.0459137 0.03086853 C23.07854854 0.03243437 27.11109473 0.04073236 31.14370728 0.05413818 C36.32485114 0.07113956 41.50589759 0.07495226 46.68706608 0.074193 C50.65803465 0.0744643 54.62898172 0.07993884 58.59994316 0.08719444 C60.51100947 0.0903868 62.42207822 0.09234983 64.33314705 0.09308815 C66.99823321 0.09524509 69.66321391 0.1039749 72.32827759 0.11468506 C73.12570374 0.11423187 73.92312988 0.11377869 74.74472046 0.11331177 C80.19012142 0.14547421 80.19012142 0.14547421 81.30459595 1.25994873 C81.40391748 2.95553599 81.43539602 4.6552062 81.43740845 6.35369873 C81.43869751 7.38365967 81.43998657 8.41362061 81.4413147 9.47479248 C81.43744751 10.55889404 81.43358032 11.64299561 81.42959595 12.75994873 C81.43346313 13.84405029 81.43733032 14.92815186 81.4413147 16.04510498 C81.44002563 17.07506592 81.43873657 18.10502686 81.43740845 19.16619873 C81.43628052 20.11817139 81.43515259 21.07014404 81.43399048 22.05096436 C81.30459595 24.25994873 81.30459595 24.25994873 80.30459595 25.25994873 C71.06459595 25.25994873 61.82459595 25.25994873 52.30459595 25.25994873 C52.30459595 53.30994873 52.30459595 81.35994873 52.30459595 110.25994873 C49.65631416 111.58408963 47.63779483 111.38951915 44.6756897 111.39276123 C43.00023071 111.39469482 43.00023071 111.39469482 41.29092407 111.39666748 C40.11981079 111.39280029 38.94869751 111.38893311 37.74209595 111.38494873 C36.56711548 111.38881592 35.39213501 111.39268311 34.18154907 111.39666748 C33.06586548 111.39537842 31.95018188 111.39408936 30.8006897 111.39276123 C29.77129272 111.3916333 28.74189575 111.39050537 27.68130493 111.38934326 C25.30459595 111.25994873 25.30459595 111.25994873 24.30459595 110.25994873 C24.17952113 107.6439442 24.11854189 105.05302939 24.09927368 102.43548584 C24.08937408 101.61603989 24.07947449 100.79659393 24.0692749 99.95231628 C24.0375654 97.23067156 24.01286533 94.50900934 23.9881897 91.78729248 C23.96762832 89.9054162 23.94663207 88.02354462 23.92521667 86.14167786 C23.86991169 81.17851562 23.82053971 76.21531113 23.77236938 71.2520752 C23.72221572 66.19151022 23.66649771 61.13100693 23.61123657 56.07049561 C23.503552 46.13369928 23.40213006 36.1968495 23.30459595 26.25994873 C22.43657349 26.23489258 21.56855103 26.20983643 20.67422485 26.184021 C17.45746432 26.08895389 14.24086746 25.9897167 11.02432251 25.88763428 C9.63147005 25.84429027 8.23856464 25.80261477 6.84561157 25.76263428 C4.84482944 25.70491941 2.84423736 25.64073004 0.84365845 25.57635498 C-0.36080933 25.53969727 -1.5652771 25.50303955 -2.8062439 25.465271 C-5.69540405 25.25994873 -5.69540405 25.25994873 -7.69540405 24.25994873 C-7.75328189 20.63501539 -7.78895825 17.01020016 -7.82040405 13.38494873 C-7.83716187 12.35240967 -7.85391968 11.31987061 -7.8711853 10.25604248 C-7.87763062 9.26990967 -7.88407593 8.28377686 -7.89071655 7.26776123 C-7.90119019 6.35655518 -7.91166382 5.44534912 -7.92245483 4.50653076 C-7.42404501 -0.42504687 -4.17665178 0.02416664 0 0 Z " fill="#040404" transform="translate(351.6954040527344,235.74005126953125)"/>
<path d="M0 0 C6.99484351 5.11161641 12.00705809 11.51310861 15.4609375 19.45703125 C16.04875 20.78734375 16.04875 20.78734375 16.6484375 22.14453125 C19.2395026 32.70810437 16.92670385 42.37722459 11.7109375 51.70703125 C5.97179934 60.72567692 -2.36108011 65.61496934 -12.5390625 68.45703125 C-21.52987207 69.49508902 -30.78580216 69.54659479 -38.5390625 64.45703125 C-39.56193359 63.82087891 -39.56193359 63.82087891 -40.60546875 63.171875 C-50.36628974 56.52266298 -55.15906797 47.9152085 -57.5390625 36.45703125 C-58.95889644 24.88268872 -54.8677863 14.81310584 -47.8515625 5.76953125 C-35.58249678 -7.82762921 -15.27060783 -9.27983091 0 0 Z " fill="#FCFCFC" transform="translate(395.5390625,464.54296875)"/>
<path d="M0 0 C0.88964951 -0.0033284 1.77929901 -0.0066568 2.69590759 -0.01008606 C4.5865731 -0.01516235 6.47724761 -0.01749417 8.36791992 -0.01733398 C11.24087709 -0.01950371 14.11343985 -0.03760505 16.98632812 -0.05664062 C18.82421744 -0.05957788 20.66210858 -0.06156045 22.5 -0.0625 C23.77859642 -0.07327827 23.77859642 -0.07327827 25.08302307 -0.08427429 C34.930039 -0.04719361 43.72985281 2.30892455 51.234375 8.95703125 C57.37123187 15.44271998 59.31790679 21.71174279 59.65234375 30.54296875 C59.40321725 39.08302504 57.43675912 46.16778266 51.65234375 52.60546875 C41.2742465 61.78030835 28.38001451 60.86078947 15.26513672 61.02612305 C13.22191045 60.94202958 13.22191045 60.94202958 12.21484375 62.16796875 C12.06931643 63.93530051 11.98761906 65.70797869 11.93359375 67.48046875 C11.89621094 68.55554688 11.85882813 69.630625 11.8203125 70.73828125 C11.78550781 71.87007812 11.75070312 73.001875 11.71484375 74.16796875 C11.64628881 76.39727382 11.57360135 78.62645699 11.49609375 80.85546875 C11.4506543 82.34626953 11.4506543 82.34626953 11.40429688 83.8671875 C11.21484375 86.16796875 11.21484375 86.16796875 10.21484375 87.16796875 C8.8113564 87.26657006 7.40303898 87.29875812 5.99609375 87.30078125 C4.72185547 87.30271484 4.72185547 87.30271484 3.421875 87.3046875 C2.52855469 87.30082031 1.63523437 87.29695312 0.71484375 87.29296875 C-0.17847656 87.29683594 -1.07179688 87.30070313 -1.9921875 87.3046875 C-2.84167969 87.30339844 -3.69117188 87.30210937 -4.56640625 87.30078125 C-5.35080078 87.29965332 -6.13519531 87.29852539 -6.94335938 87.29736328 C-8.78515625 87.16796875 -8.78515625 87.16796875 -9.78515625 86.16796875 C-9.88558896 83.52596814 -9.92132475 80.91008285 -9.91455078 78.26757812 C-9.9163031 77.43998489 -9.91805542 76.61239166 -9.91986084 75.75971985 C-9.92428018 73.01036513 -9.92134108 70.26107418 -9.91796875 67.51171875 C-9.91864177 65.60982246 -9.91961177 63.70792626 -9.92086792 61.80603027 C-9.922345 57.8145262 -9.92019 53.82304446 -9.91552734 49.83154297 C-9.90983005 44.70306368 -9.913109 39.57463673 -9.91909981 34.44615936 C-9.92270514 30.51722821 -9.92156697 26.58830957 -9.91897202 22.65937805 C-9.91830267 20.76784763 -9.91913144 18.8763161 -9.92145157 16.98478699 C-9.92397763 14.34594698 -9.92013816 11.70719294 -9.91455078 9.06835938 C-9.91657501 8.27871292 -9.91859924 7.48906647 -9.92068481 6.67549133 C-9.88912226 -1.32905533 -7.14949412 0.0091812 0 0 Z " fill="#030303" transform="translate(345.78515625,637.83203125)"/>
<path d="M0 0 C1.17792114 -0.00315216 2.35584229 -0.00630432 3.56945801 -0.009552 C4.85171265 -0.00752777 6.13396729 -0.00550354 7.45507812 -0.00341797 C8.76085815 -0.00437469 10.06663818 -0.00533142 11.4119873 -0.00631714 C14.17945535 -0.0077938 16.94689116 -0.00564058 19.71435547 -0.00097656 C23.26895462 0.00472073 26.82347827 0.00144155 30.37807465 -0.00454903 C33.75791526 -0.00902294 37.13773536 -0.00589433 40.51757812 -0.00341797 C41.79983276 -0.0054422 43.0820874 -0.00746643 44.40319824 -0.009552 C46.17007996 -0.00482376 46.17007996 -0.00482376 47.97265625 0 C49.0155481 0.00079559 50.05843994 0.00159119 51.13293457 0.00241089 C53.48632812 0.12939453 53.48632812 0.12939453 54.48632812 1.12939453 C54.48632812 7.06939453 54.48632812 13.00939453 54.48632812 19.12939453 C41.61632812 19.45939453 28.74632812 19.78939453 15.48632812 20.12939453 C15.15632813 24.41939453 14.82632812 28.70939453 14.48632812 33.12939453 C15.44522949 33.1189209 16.40413086 33.10844727 17.39208984 33.09765625 C20.94413531 33.06150125 24.49616447 33.0385106 28.04833984 33.01953125 C29.58677911 33.00946336 31.1251992 32.99580807 32.66357422 32.97851562 C34.87276945 32.95430136 37.08171207 32.94291962 39.29101562 32.93408203 C39.98065399 32.92375946 40.67029236 32.91343689 41.38082886 32.90280151 C43.08433719 32.90239975 44.78718755 33.00748428 46.48632812 33.12939453 C48.48632812 35.12939453 48.48632812 35.12939453 48.71679688 38.78955078 C48.71280545 40.25706317 48.69804971 41.72457662 48.67382812 43.19189453 C48.67318359 43.93761719 48.67253906 44.68333984 48.671875 45.45166016 C48.62660972 50.98911294 48.62660972 50.98911294 47.48632812 52.12939453 C45.11294173 52.2891143 42.76514541 52.38863783 40.38867188 52.44580078 C39.32538414 52.47697243 39.32538414 52.47697243 38.24061584 52.5087738 C35.96845508 52.57434051 33.69617548 52.63318683 31.42382812 52.69189453 C29.88670629 52.73507302 28.34959662 52.77868708 26.8125 52.82275391 C23.03722956 52.93085187 19.26187346 53.0298709 15.48632812 53.12939453 C15.48632812 57.74939453 15.48632812 62.36939453 15.48632812 67.12939453 C17.25061157 67.16697876 17.25061157 67.16697876 19.05053711 67.20532227 C23.39847434 67.2992226 27.74624529 67.39948501 32.09399414 67.50170898 C33.97872031 67.54512387 35.86348748 67.58679396 37.74829102 67.62670898 C40.45146061 67.68425346 43.15442249 67.74799257 45.85742188 67.81298828 C46.70533798 67.82970078 47.55325409 67.84641327 48.42686462 67.8636322 C54.37245642 68.01552282 54.37245642 68.01552282 55.48632812 69.12939453 C55.58619787 71.97274501 55.62510694 74.78636616 55.61132812 77.62939453 C55.61712891 78.82628906 55.61712891 78.82628906 55.62304688 80.04736328 C55.6129358 86.00278686 55.6129358 86.00278686 54.48632812 87.12939453 C52.61997025 87.22850014 50.74984618 87.25738714 48.88085938 87.25878906 C47.68291748 87.26194122 46.48497559 87.26509338 45.25073242 87.26834106 C43.946604 87.26631683 42.64247559 87.2642926 41.29882812 87.26220703 C39.95743797 87.26288013 38.61604794 87.26385021 37.2746582 87.2651062 C34.46011191 87.26658289 31.6455973 87.26442957 28.83105469 87.25976562 C25.21592182 87.25406834 21.60086318 87.2573475 17.98573303 87.26333809 C15.21487871 87.2669445 12.4440421 87.26580475 9.67318726 87.2632103 C7.68943229 87.26221486 5.70567665 87.26526194 3.72192383 87.26834106 C2.52398193 87.2651889 1.32604004 87.26203674 0.09179688 87.25878906 C-0.96885986 87.25799347 -2.0295166 87.25719788 -3.12231445 87.25637817 C-5.51367188 87.12939453 -5.51367188 87.12939453 -6.51367188 86.12939453 C-6.61410459 83.48739392 -6.64984037 80.87150863 -6.64306641 78.22900391 C-6.64481873 77.40141068 -6.64657104 76.57381744 -6.64837646 75.72114563 C-6.65279581 72.97179091 -6.64985671 70.22249996 -6.64648438 67.47314453 C-6.64715739 65.57124825 -6.6481274 63.66935204 -6.64938354 61.76745605 C-6.65086063 57.77595198 -6.64870562 53.78447024 -6.64404297 49.79296875 C-6.63834568 44.66448947 -6.64162462 39.53606251 -6.64761543 34.40758514 C-6.65122076 30.478654 -6.65008259 26.54973535 -6.64748764 22.62080383 C-6.64681829 20.72927342 -6.64764706 18.83774188 -6.64996719 16.94621277 C-6.65249326 14.30737277 -6.64865379 11.66861872 -6.64306641 9.02978516 C-6.64509064 8.2401387 -6.64711487 7.45049225 -6.64920044 6.63691711 C-6.62386009 0.21037916 -6.32772988 0.00482725 0 0 Z " fill="#030303" transform="translate(437.513671875,637.87060546875)"/>
<path d="M0 0 C10.65709954 -0.60263361 22.06508751 2.35436602 30.25 9.3515625 C32.34375 11.359375 32.34375 11.359375 33.75 13.2265625 C33.75 14.2165625 33.75 15.2065625 33.75 16.2265625 C31.51953125 18.453125 31.51953125 18.453125 28.5625 20.8515625 C27.59957031 21.64820313 26.63664063 22.44484375 25.64453125 23.265625 C22.82081299 25.17858933 21.13287917 26.05915039 17.75 26.2265625 C16.03724465 24.95297518 14.37332967 23.61233173 12.75 22.2265625 C7.76318799 19.90711505 2.17806522 19.35769836 -3.25 20.2265625 C-5.5404066 22.00010743 -6.15448682 22.81267206 -6.8125 25.6640625 C-6.47780127 28.46431046 -6.47780127 28.46431046 -3.80078125 30.203125 C0.91171507 33.1734553 6.2683659 34.36828586 11.5859375 35.84960938 C20.96721646 38.60836689 28.12018568 43.10153962 33.75 51.2265625 C36.26225096 57.23411915 36.96178183 63.54612744 34.91015625 69.77734375 C31.3897558 77.58860266 26.12728312 82.80333895 18.5 86.6640625 C8.79013232 90.16202725 -5.43925636 89.90477205 -15.08203125 86.26953125 C-21.8928028 82.99299791 -28.13636542 79.75163804 -32.25 73.2265625 C-32.2265625 71.31640625 -32.2265625 71.31640625 -31.25 69.2265625 C-28.66796875 67.05078125 -28.66796875 67.05078125 -25.4375 64.9140625 C-24.37917969 64.19605469 -23.32085938 63.47804688 -22.23046875 62.73828125 C-19.25 61.2265625 -19.25 61.2265625 -17.1171875 61.30859375 C-14.90490911 62.39622015 -13.11133545 63.68452869 -11.1875 65.2265625 C-5.7613279 69.55916825 -1.01201031 69.68956639 5.75 69.2265625 C8.72980201 68.37596237 8.72980201 68.37596237 10.75 67.2265625 C11.94481807 62.79544815 11.94481807 62.79544815 10.74609375 58.6484375 C7.81006384 56.55701894 4.5511702 55.75444096 1.125 54.7890625 C-10.47095801 51.32349947 -22.1114179 47.52155357 -28.25 36.2265625 C-30.25602141 29.91030591 -30.46002074 22.01459376 -27.75 15.9140625 C-22.79668809 7.55426239 -14.56072832 2.87283945 -5.375 0.4765625 C-3.58203324 0.33312516 -1.78964505 0.18020731 0 0 Z " fill="#030303" transform="translate(550.25,636.7734375)"/>
<path d="M0 0 C0.68128967 -0.00175232 1.36257935 -0.00350464 2.06451416 -0.00531006 C4.32688917 -0.00972789 6.58918663 -0.00679084 8.8515625 -0.00341797 C10.4171551 -0.00409103 11.9827476 -0.00506107 13.54833984 -0.00631714 C16.83366895 -0.00779402 20.11897092 -0.00563988 23.40429688 -0.00097656 C27.62476766 0.00472073 31.84517486 0.00144167 36.06564331 -0.00454903 C39.29972822 -0.00815491 42.53379795 -0.00701593 45.7678833 -0.00442123 C47.32448331 -0.00375204 48.88108468 -0.00458012 50.43768311 -0.00690079 C52.60953446 -0.00942777 54.78128146 -0.00558612 56.953125 0 C58.19143066 0.00079559 59.42973633 0.00159119 60.70556641 0.00241089 C63.4765625 0.12939453 63.4765625 0.12939453 64.4765625 1.12939453 C64.57643225 3.97274501 64.61534131 6.78636616 64.6015625 9.62939453 C64.60542969 10.42732422 64.60929688 11.22525391 64.61328125 12.04736328 C64.60317017 18.00278686 64.60317017 18.00278686 63.4765625 19.12939453 C61.85533827 19.27446718 60.22836361 19.35649464 58.6015625 19.41064453 C57.61671875 19.44802734 56.631875 19.48541016 55.6171875 19.52392578 C53.5234375 19.59423828 51.4296875 19.66455078 49.3359375 19.73486328 C48.35109375 19.77224609 47.36625 19.80962891 46.3515625 19.84814453 C44.98644531 19.89358398 44.98644531 19.89358398 43.59375 19.93994141 C41.49230818 19.89989212 41.49230818 19.89989212 40.4765625 21.12939453 C40.35806761 23.14839084 40.30915076 25.17149721 40.28710938 27.19384766 C40.26203308 29.14091614 40.26203308 29.14091614 40.2364502 31.12731934 C40.22976822 31.82526108 40.22308624 32.52320282 40.21620178 33.24229431 C40.19523538 35.41864923 40.16820865 37.59485218 40.13952637 39.77111816 C40.07973869 44.39048578 40.02761761 49.00992322 39.9765625 53.62939453 C39.91742447 58.98020878 39.85520293 64.33094796 39.78468323 69.68162537 C39.75801833 71.83154922 39.73725844 73.98148025 39.7166748 76.13146973 C39.69159851 78.07853821 39.69159851 78.07853821 39.66601562 80.06494141 C39.64722351 81.78916321 39.64722351 81.78916321 39.62805176 83.54821777 C39.4765625 86.12939453 39.4765625 86.12939453 38.4765625 87.12939453 C35.338328 87.3790602 32.18606637 87.31461244 29.0390625 87.31689453 C27.71165039 87.33526367 27.71165039 87.33526367 26.35742188 87.35400391 C25.51115234 87.3559375 24.66488281 87.35787109 23.79296875 87.35986328 C23.01381104 87.36397217 22.23465332 87.36808105 21.43188477 87.37231445 C19.4765625 87.12939453 19.4765625 87.12939453 17.4765625 85.12939453 C17.1980896 82.42123413 17.1980896 82.42123413 17.15771484 78.93554688 C17.12791031 76.98375015 17.12791031 76.98375015 17.09750366 74.99252319 C17.0856263 73.56679454 17.0739635 72.14106408 17.0625 70.71533203 C17.04379576 69.26086315 17.02422291 67.8064052 17.0038147 66.35195923 C16.95240856 62.52154985 16.91282851 58.69110525 16.87567139 54.86053467 C16.83568468 50.95266956 16.7845681 47.04495201 16.734375 43.13720703 C16.6375154 35.4680373 16.55314303 27.7987964 16.4765625 20.12939453 C15.82059082 20.1095752 15.16461914 20.08975586 14.48876953 20.06933594 C11.52595181 19.97426946 8.56385718 19.86451701 5.6015625 19.75439453 C4.56902344 19.72345703 3.53648437 19.69251953 2.47265625 19.66064453 C1.48652344 19.62197266 0.50039063 19.58330078 -0.515625 19.54345703 C-1.42683105 19.51203613 -2.33803711 19.48061523 -3.27685547 19.44824219 C-5.5234375 19.12939453 -5.5234375 19.12939453 -7.5234375 17.12939453 C-7.69514653 14.4024223 -7.7558943 11.79032985 -7.7109375 9.06689453 C-7.71029297 8.32117188 -7.70964844 7.57544922 -7.70898438 6.80712891 C-7.65081241 -0.30924185 -6.91601048 0.00444344 0 0 Z " fill="#030303" transform="translate(614.5234375,637.87060546875)"/>
<path d="M0 0 C1.77140926 1.38391349 3.32865903 2.83635342 4.875 4.46484375 C3.34736536 8.55080627 0.76415809 10.26310554 -2.75 12.71484375 C-3.75289063 13.42125 -4.75578125 14.12765625 -5.7890625 14.85546875 C-6.94535156 15.65210938 -6.94535156 15.65210938 -8.125 16.46484375 C-10.08593574 15.51017766 -11.9913967 14.54804217 -13.84375 13.39453125 C-19.72692116 9.91107464 -25.40895106 9.44342581 -32.125 10.46484375 C-37.61685882 12.42816066 -41.45771488 16.09438235 -44.27734375 21.16015625 C-46.43319878 27.02169758 -46.03542333 33.16990972 -43.5 38.83984375 C-41.00782423 43.17444946 -37.61774108 46.21847321 -33.125 48.46484375 C-25.07415254 49.16045522 -18.97269326 48.81813367 -12.125 44.46484375 C-10.79780811 43.78603309 -9.46587465 43.11620955 -8.125 42.46484375 C-6.11592002 43.89093177 -4.11830486 45.32950407 -2.125 46.77734375 C-1.55265625 47.18146484 -0.9803125 47.58558594 -0.390625 48.00195312 C1.08708644 49.083849 2.48754109 50.26939924 3.875 51.46484375 C3.875 54.46484375 3.875 54.46484375 2.125 56.77734375 C-6.45069396 64.86299805 -18.4296102 67.94207748 -29.85546875 67.70703125 C-40.46948925 66.92080751 -50.37550875 61.9384651 -57.5625 54.02734375 C-65.45006322 43.88943829 -67.09369049 32.95972484 -66.125 20.46484375 C-63.94748949 10.62040999 -57.33237772 2.38056108 -49.16796875 -3.3203125 C-33.52744719 -12.62089033 -14.4292567 -9.99968709 0 0 Z " fill="#040404" transform="translate(484.125,758.53515625)"/>
<path d="M0 0 C5.5492025 3.26728745 9.80618016 7.73203557 11.52734375 14.04296875 C12.39441859 20.7693675 11.15280778 26.29800268 7.52734375 32.04296875 C3.83806765 36.19719472 -0.58803625 38.63334409 -6.0859375 39.4140625 C-12.92166125 39.58223515 -17.24283631 38.52921239 -22.47265625 34.04296875 C-26.65930129 29.85632371 -29.24540226 24.75694819 -29.609375 18.80859375 C-29.20402404 12.09134923 -26.61318698 7.10183083 -21.8203125 2.43359375 C-15.59657747 -2.25065503 -7.20493974 -2.78864176 0 0 Z " fill="#FBFBFB" transform="translate(554.47265625,768.95703125)"/>
<path d="M0 0 C0.99 0.33 1.98 0.66 3 1 C4.22680664 3.66455078 4.22680664 3.66455078 5.41015625 7.1953125 C5.62312851 7.82098114 5.83610077 8.44664978 6.05552673 9.09127808 C6.73569826 11.09894884 7.39903334 13.11175503 8.0625 15.125 C8.51261997 16.45868881 8.96378031 17.79202699 9.41601562 19.125 C11.41380096 25.0490047 13.31428806 30.97980587 15 37 C14 38 14 38 11.40795898 38.11352539 C10.28204346 38.10828857 9.15612793 38.10305176 7.99609375 38.09765625 C6.78115234 38.09443359 5.56621094 38.09121094 4.31445312 38.08789062 C3.03505859 38.07951172 1.75566406 38.07113281 0.4375 38.0625 C-0.84576172 38.05798828 -2.12902344 38.05347656 -3.45117188 38.04882812 C-6.63416022 38.03699545 -9.81705762 38.02051068 -13 38 C-12.43203195 33.16019123 -11.42999713 28.88008844 -9.78515625 24.296875 C-9.34623047 23.0696875 -8.90730469 21.8425 -8.45507812 20.578125 C-8.2263501 19.94970703 -7.99762207 19.32128906 -7.76196289 18.67382812 C-7.06023176 16.74376134 -6.3702246 14.80979123 -5.68164062 12.875 C-2.27052854 3.40579281 -2.27052854 3.40579281 0 0 Z " fill="#F8F8F7" transform="translate(662,473)"/>
<path d="M0 0 C0.76441406 -0.020625 1.52882813 -0.04125 2.31640625 -0.0625 C8.01570838 -0.10187342 11.36342741 0.94572301 15.5625 5 C17.27868326 8.25171564 17.13162088 10.62460162 16.75 14.25 C15.04749472 18.08063688 13.59067329 19.68862711 9.75 21.25 C7.65942383 21.49291992 7.65942383 21.49291992 5.45703125 21.48046875 C4.66232422 21.47853516 3.86761719 21.47660156 3.04882812 21.47460938 C1.8180957 21.45624023 1.8180957 21.45624023 0.5625 21.4375 C-0.68563477 21.4365332 -0.68563477 21.4365332 -1.95898438 21.43554688 C-8.10956743 21.39043257 -8.10956743 21.39043257 -9.25 20.25 C-9.34860131 18.84651265 -9.38078937 17.43819523 -9.3828125 16.03125 C-9.38410156 15.18175781 -9.38539063 14.33226562 -9.38671875 13.45703125 C-9.38285156 12.56371094 -9.37898438 11.67039062 -9.375 10.75 C-9.37886719 9.85667969 -9.38273437 8.96335937 -9.38671875 8.04296875 C-9.38542969 7.19347656 -9.38414062 6.34398437 -9.3828125 5.46875 C-9.38168457 4.68435547 -9.38055664 3.89996094 -9.37939453 3.09179688 C-9.05252806 -1.56080813 -3.56458453 0.0235675 0 0 Z " fill="#F8F8F8" transform="translate(366.25,657.75)"/>
<path d="M0 0 C2.86742836 1.89170621 5.43812751 3.87625503 7 7 C7.44408691 10.9079648 7.13704844 12.74548146 5.25 16.25 C3.06893966 18.91574041 2.10676074 19.80159686 -1 21 C-5.62785955 21.32287392 -9.14600399 20.54028319 -13.0625 18.0625 C-15.43829294 14.30721439 -15.77178933 11.76744188 -15.5625 7.37890625 C-14.92804961 4.69570979 -14.25925622 3.71403096 -12.1875 1.9375 C-7.6010651 -0.85033298 -5.16802646 -1.41867393 0 0 Z " fill="#060606" transform="translate(608,804)"/>
<path d="M0 0 C21.76583017 -0.21809449 43.32011134 -0.25152276 65 2 C65 2.33 65 2.66 65 3 C62.93964616 3.22858498 60.87643842 3.43143544 58.8125 3.625 C57.66394531 3.74101563 56.51539063 3.85703125 55.33203125 3.9765625 C51.84942333 4.13534019 48.67990497 3.6645068 45.25 3.0625 C36.26730402 1.56613974 27.27124203 1.53899421 18.1875 1.375 C16.41599858 1.33671831 14.64451374 1.29766111 12.87304688 1.2578125 C8.58216963 1.16294996 4.291206 1.07852687 0 1 C0 0.67 0 0.34 0 0 Z " fill="#E8C4C5" transform="translate(494,117)"/>
<path d="M0 0 C0.66 0.33 1.32 0.66 2 1 C-1.24218905 5.26116275 -3.03397331 7.01358932 -8 9 C-8.825 9.99 -9.65 10.98 -10.5 12 C-13.01457181 15.01748617 -14.2779654 16.02051721 -18 17 C-18.99 17 -19.98 17 -21 17 C-14.1430354 11.12558825 -7.31356061 5.30591652 0 0 Z " fill="#D37575" transform="translate(279,192)"/>
<path d="M0 0 C1.125 3.75 1.125 3.75 0 6 C-0.66 6 -1.32 6 -2 6 C-2.2475 6.556875 -2.495 7.11375 -2.75 7.6875 C-5.04875509 11.94019691 -7.41425125 15.19845585 -12 17 C-10.32844203 13.22757683 -7.92645254 10.07212347 -5.4375 6.8125 C-5.02564453 6.26658203 -4.61378906 5.72066406 -4.18945312 5.15820312 C-1.16952328 1.16952328 -1.16952328 1.16952328 0 0 Z " fill="#CD5D5E" transform="translate(203,266)"/>
<path d="M0 0 C9.06335876 -0.10234659 17.98175113 -0.06996173 27 1 C27 1.33 27 1.66 27 2 C17.62509392 3.04009453 9.25454457 2.86013271 0 1 C0 0.67 0 0.34 0 0 Z " fill="#D47475" transform="translate(532,118)"/>
<path d="M0 0 C0.57234375 0.23589844 1.1446875 0.47179687 1.734375 0.71484375 C-1.03485351 3.79176432 -3.29412524 5.49284382 -7.265625 6.71484375 C-8.255625 6.71484375 -9.245625 6.71484375 -10.265625 6.71484375 C-9.03009224 5.51229851 -7.77660161 4.32818143 -6.515625 3.15234375 C-5.81953125 2.49105469 -5.1234375 1.82976562 -4.40625 1.1484375 C-2.265625 -0.28515625 -2.265625 -0.28515625 0 0 Z " fill="#CF6465" transform="translate(268.265625,202.28515625)"/>
<path d="M0 0 C0.33 0.66 0.66 1.32 1 2 C-0.1875 5.5625 -0.1875 5.5625 -2 9 C-4.1875 9.9375 -4.1875 9.9375 -6 10 C-4.6302836 6.00499382 -2.74277578 3.19990508 0 0 Z " fill="#D57474" transform="translate(190,283)"/>
<path d="M0 0 C0.75 1.5625 0.75 1.5625 1 4 C-0.13084437 6.50286409 -1.52139516 8.67007722 -3 11 C-3.66 11 -4.32 11 -5 11 C-3.77472971 6.94718288 -2.30119506 3.55639236 0 0 Z " fill="#D57979" transform="translate(171,312)"/>
<path d="M0 0 C2.00293347 3.00440021 2.49271626 4.70993945 3.125 8.1875 C3.37636719 9.53908203 3.37636719 9.53908203 3.6328125 10.91796875 C3.75398437 11.60503906 3.87515625 12.29210937 4 13 C3.34 13 2.68 13 2 13 C2 11.35 2 9.7 2 8 C1.34 8 0.68 8 0 8 C0 5.36 0 2.72 0 0 Z " fill="#DB9291" transform="translate(888,389)"/>
<path d="M0 0 C0.33 0 0.66 0 1 0 C1 3.96 1 7.92 1 12 C0.34 12 -0.32 12 -1 12 C-1.33 12.66 -1.66 13.32 -2 14 C-1.85795259 12.41632253 -1.71119847 10.83306682 -1.5625 9.25 C-1.48128906 8.36828125 -1.40007812 7.4865625 -1.31640625 6.578125 C-1.03761535 4.30649548 -0.61209423 2.20148177 0 0 Z " fill="#DD9596" transform="translate(128,419)"/>
<path d="M0 0 C0.66 0.99 1.32 1.98 2 3 C0.35 4.32 -1.3 5.64 -3 7 C-3.66 6.34 -4.32 5.68 -5 5 C-3.35 3.35 -1.7 1.7 0 0 Z " fill="#CE5253" transform="translate(235,230)"/>
<path d="M0 0 C2.15377564 2.62198774 3.40072174 4.64404172 4 8 C3.01 7.67 2.02 7.34 1 7 C-0.1875 3.9375 -0.1875 3.9375 -1 1 C-0.67 0.67 -0.34 0.34 0 0 Z " fill="#D16B6B" transform="translate(858,320)"/>
<path d="M0 0 C-0.33 0.66 -0.66 1.32 -1 2 C-3.06640625 2.4140625 -3.06640625 2.4140625 -5.5625 2.625 C-6.38878906 2.69976562 -7.21507812 2.77453125 -8.06640625 2.8515625 C-9.02353516 2.92503906 -9.02353516 2.92503906 -10 3 C-6.84439813 -0.15560187 -4.30999015 -1.43666338 0 0 Z " fill="#DD9999" transform="translate(371,144)"/>
</svg>
